# xmcd
#
# Track frame offsets:
#	150
#	19341
#	35258
#	50798
#	62960
#	87082
#	105367
#	120475
#	141954
#	165672
#	186952
#	197540
#
# Disc length: 2769 seconds
#
# Revision: 0
# Processed by: cddbd v1.4PL0 Copyright (c) Steve Scherf et al.
# Submitted via: EasyCDDAExtractor 4.5.0.2
#
DISCID=a10acf0c
DTITLE=Joe Cocker - With A Little Help From My Friends
DYEAR=1900
DGENRE=
TTITLE0=Feeling Alright
TTITLE1=Bye Bye Blackbird
TTITLE2=Change in Louise
TTITLE3=Marjorine
TTITLE4=Just Like A Woman
TTITLE5=Do I Still Figure In Your Life?
TTITLE6=Sandpaper Cadillac
TTITLE7=Don't Let Me Be Misunderstood
TTITLE8=With A Little Help From My Friends
TTITLE9=I Shall Be Released
TTITLE10=The New Age Of Lily
TTITLE11=Something's Coming On
EXTD=
EXTT0=
EXTT1=
EXTT2=
EXTT3=
EXTT4=
EXTT5=
EXTT6=
EXTT7=
EXTT8=
EXTT9=
EXTT10=
EXTT11=
PLAYORDER=
